<svg xmlns="http://www.w3.org/2000/svg" width="50" height="50" fill="none" viewBox="0 0 50 50">
  <path fill="#029D5F" d="m34.8 3.2 1.122.486c5.553 2.713 9.653 7.31 11.828 13.064 1.914 5.575 1.752 12.238-.55 17.65l-.397 1.034c-2.65 6.132-8.139 9.757-14.112 12.188-5.841 2.025-12.729 1.128-18.241-1.336C8.366 43.253 4.234 38.05 2.075 31.675.784 26.459 1.104 20.528 3.2 15.6l.397-1.034c2.65-6.132 8.139-9.757 14.112-12.188C22.933.568 29.787.973 34.8 3.2Z"/>
  <path fill="#F1F9F6" d="M34.4 24.4c2.385 1.086 4.261 3.155 5.2 5.6.146 1.222.127 2.377 0 3.6h-.8l-.1.875c-.52 1.947-1.569 2.884-3.175 4.05-2.198 1.158-4.278.92-6.6.25-1.954-1.143-3.17-2.59-4.275-4.55-.598-2.453-.47-4.472.773-6.666 2.271-2.99 5.349-3.89 8.977-3.159Z"/>
  <path fill="#DEF2EA" d="M22.923 12.225c1.392 1.183 2.6 2.468 2.758 4.331.048 2.929-.25 4.645-2.206 6.919-1.848 1.59-3.38 2.358-5.872 2.234-2.716-.37-4.158-1.731-5.85-3.734-1.27-1.78-1.277-3.88-.953-5.975.934-1.987 2.138-3.61 4-4.8 2.881-.98 5.65-.734 8.123 1.025Z"/>
  <path fill="#F0F9F5" d="M20 12.8c1.594.826 2.649 1.685 3.6 3.2.24 1.352.214 2.644 0 4-.8 1.05-.8 1.05-1.6 1.6v-.8h-1.2l.8 1.6c-1.2.8-1.2.8-2.8.8V22H18v1.2c-2.407-.094-2.407-.094-3.431-.89-.889-.996-1.35-1.728-1.494-3.06l.125-.85h1.2v-.8l-1.2.4v-2.4l1.6-.8v.8h.8v-1.2h-.8v-.8c1.733-.98 3.244-1.078 5.2-.8Z"/>
  <path fill="#25AB75" d="M20.4 12c1.602.8 2.664 1.672 3.6 3.2.615 1.845.747 3.728.14 5.602-.926 1.834-2.184 2.95-4.14 3.598-1.93.326-3.213.208-4.95-.725-1.64-1.366-2.871-2.415-3.184-4.622-.036-2.295.129-3.68 1.734-5.453 2.043-1.893 4.141-1.996 6.8-1.6Zm-5.6 1.6v.8h.8v1.2h-.8v-.8l-1.6.8V18l1.2-.4v.8h-1.2c.062 1.836.062 1.836.89 3.431.996.889 1.728 1.35 3.06 1.494L18 23.2V22h.8v1.2l2.4-.4c.09-1.17.09-1.17-.4-2H22l.4.8c1.333-1.538 1.427-2.626 1.369-4.61-.279-1.633-.95-2.282-2.169-3.39-1.17-.706-2.038-.91-3.4-.9l-.912-.006c-.98.117-1.637.419-2.488.906Z"/>
  <path fill="#0EA266" d="M31.8 30.975c1.65.265 2.303.566 3.4 1.825.325 1.5.325 1.5.4 2.8-1.428.952-2.107.908-3.8.9l-1.387.006C29.2 36.4 29.2 36.4 28 35.6c.106-1.525.332-2.308 1.25-3.55 1.15-.85 1.15-.85 2.55-1.075Z"/>
  <path fill="#CEECE0" d="M15.6 27.2c.987.46 1.62.82 2.4 1.6l-.4 1.2-.4-.4-.025 1.575-.014.886c-.043.746-.043.746.439 1.139.873.094 1.749.165 2.625.225l1.452.102 1.123.073v.8c-.9.054-1.8.093-2.7.125l-1.519.07C17.2 34.4 17.2 34.4 16.238 33.487c-.765-1.304-.92-2.39-1.038-3.887L14 30c.43-1.166.711-1.911 1.6-2.8Z"/>
  <path fill="#E3F4ED" d="M19.36 10.619c2.17.378 3.585 1.64 5.24 3.006.971 1.902.72 3.88.6 5.975h-.4l-.325-1.45c-.559-2.18-1.19-4.227-3.21-5.478-2.057-.647-4.337-.377-6.465-.272 1.481-1.709 2.37-1.872 4.56-1.781Z"/>
  <path fill="#DBF1E8" d="M27.2 15.6c.9-.032 1.8-.056 2.7-.075l1.519-.042c1.453.123 2.033.217 2.981 1.317.156.992.156.992.1 2.075l-.044 1.092-.056.833h.8V20h.8a22.62 22.62 0 0 1-1.6 2.8h-.8C32 21.012 32 21.012 32 20l1.2.4v-3.2c-1.133-.567-2.19-.538-3.45-.625l-1.44-.102-1.11-.073v-.8Z"/>
  <path fill="#27AB76" d="M12.4 16.4h.4l.119.805c.417 2.465.853 4.175 2.981 5.695 1.35.45 2.684.559 4.1.7v.8c-2.511.2-3.984.08-6-1.6-.975-.84-1.18-1.139-1.6-2.4a39.655 39.655 0 0 1-.025-2.075l.011-1.092.014-.833Z"/>
  <path fill="#0FA267" d="M31.775 27.525c1.025.075 1.025.075 1.825.875-.222 1.822-.222 1.822-.8 2.4-1 .05-1 .05-2 0-.4-.4-.4-.4-.45-1.6.065-1.57.065-1.57 1.425-1.675Z"/>
  <path fill="#5EC199" d="m13.6 13.6 2 .8v1.2h-.8v-.8l-1.2.8c-.1 1.034-.1 1.034 0 2h.8v.8h-1.2l-.4 1.2-.8.4c-.19-2.677-.16-4.31 1.6-6.4Z"/>
  <path fill="#59BF96" d="m20.8 20.8 2 .4-.4 2c-2.078.883-3.433.774-5.6.4l1.2-.4V22h.8v1.2l2.4-.8-.4-1.6Z"/>
  <path fill="#E7F6F0" d="M34 17.6h.4v3.2h.8V20h.8a22.62 22.62 0 0 1-1.6 2.8h-.8C32 21.012 32 21.012 32 20l1.2.4v.8h.8v-3.6Z"/>
  <path fill="#D2EDE2" d="M25.2 15.6h.4c.221 4.609.221 4.609-1.2 6.8l-1.6-.4.575-.825c.717-1.348.833-2.47 1.025-3.975.425-.975.425-.975.8-1.6Z"/>
  <path fill="#21A972" d="m23.2 14.8.8.4c.686 2.058.762 4.062-.2 6.025l-.6.775-.4-1.2.4-.8c.028-.883.034-1.767.025-2.65l-.01-1.44c-.006-.367-.01-.733-.015-1.11Z"/>
  <path fill="#D5EFE4" d="m14.8 11.2.8.4c-.696 1.227-1.357 2.248-2.4 3.2l-.8.8-.8-.4c.573-2.004 1.594-2.778 3.2-4Z"/>
  <path fill="#27AC76" d="M18 15.2h.8l.125 1.325c.264 1.417.356 1.848 1.475 2.675l-2.8-.4.4-3.6Z"/>
  <path fill="#F4FAF8" d="m17.256 10.644 2.344.156v.8l-4.8.8c1.6-1.6 1.6-1.6 2.456-1.756Z"/>
  <path fill="#C8EADC" d="M32.4 16c.775.125.775.125 1.6.4.413 1.238.39 1.81.225 3.075l-.123.98L34 21.2l-.8-.4v-3.6l-.8-.4V16Z"/>
  <path fill="#31AF7D" d="M20 12.8c.9-.125.9-.125 2 0 .925 1 .925 1 1.6 2l-.8.8-2.8-2.8Z"/>
  <path fill="#A1DBC3" d="M23.2 16h.4v4l-.4-1.2-1.2-.4v-.8h1.2V16Z"/>
  <path fill="#A7DDC7" d="M16.4 12.8H20l-1.2.4v1.2h-1.2v-1.2l-1.2-.4Z"/>
  <path fill="#CEECE0" d="m19.6 10.8 1.6.4v.8h-4.4v-.4h2.8v-.8Z"/>
</svg>
